/* XPM */
static char *_e6db603ddc04582eb5df720c5a53822miFtWwC7MIlxN7GT[] = {
/* columns rows colors chars-per-pixel */
"64 64 53 1 ",
"  c #CF8B86",
". c #D08C86",
"X c #D18E89",
"o c #D4938D",
"O c #D69791",
"+ c #D79993",
"@ c #D99B95",
"# c #DA9E98",
"$ c #DEA49E",
"% c #DFA6A1",
"& c #DFA8A2",
"* c #E0A7A1",
"= c #E2ACA6",
"- c #E3AEA8",
"; c #E5B3AD",
": c #E7B6B1",
"> c #E8B7B1",
", c #E7B8B3",
"< c #E9BBB5",
"1 c #EBBEB9",
"2 c #ECC2BD",
"3 c #EDC6C1",
"4 c #EEC9C4",
"5 c #EFCDC9",
"6 c #F0C6C2",
"7 c #F3CBC6",
"8 c #F2CDC8",
"9 c #F1CFCB",
"0 c #F4CCC8",
"q c #F4CECA",
"w c #F1CFCC",
"e c #F5CFCC",
"r c #F5D0CB",
"t c #F1D0CC",
"y c #F2D0CC",
"u c #F2D3CF",
"i c #F5D1CD",
"p c #F6D4CF",
"a c #F5D3D0",
"s c #F6D4D0",
"d c #F5D5D2",
"f c #F7D7D4",
"g c #F7D8D3",
"h c #F7D8D5",
"j c #F7DBD8",
"k c #F7DCD8",
"l c #F7DEDA",
"z c #F7DFDC",
"x c #F8DFDB",
"c c #F8DFDC",
"v c #F7E1DE",
"b c #F9E2DF",
"n c #F9E3E0",
/* pixels */
"<<<<<<<<<,,<<<<<<,<<<<<<<,<<<<<<<<<,;;<11111<<<1111121<1112222<1",
",2999w99626yyyyy926yyyyy926yyyyyyyy2;>6sfghgy69hhhjllf9ilcczvl1<",
"<4nnnnnnhqsbnnnnxqibnnnnhqsbnnnnnnb3:,ynnnnnhqsbnnnnnxqibnnnnc21",
"<4bnnnnnhqsbnnnnlqibnnnnhqibnnnnnnb4>,ynnnnnhqsbnnnnnxqibnnnnz21",
"<4bnnnnnhqsbnnnnlqibnnnnhqibnnnnnnn4>,ynnnnnhqsbnnnnnlribnnnnb22",
"<4bnnnnnhqsbnnnnxqibnnnnjribnnnnnnn4>,wbbbbbhqpbbbbbblqibbbbbc21",
"<4bbcbcbs9ixlcxxhqqllxxxs9ihhhhhhhh3:>6sfsgsiqqssssssiqqsiisii1<",
"<3iiiiiiq69iirreq7qqrqqqq6qqeqqqqqr2;:2qqqqq97qqqqqqq967qqqqqq<<",
"16iririiq6qiiiiii6qiiiiir99iissssss2::3ssssfiqrhhhhhhsqrhxlhxh2<",
"<4lllxbch9ibbbbbxrrcnnnnxqibnnnnnbn9>,9nnnnnhqsbnnnnnxqibnnnnb2<",
"<4bnnnnnhqsbnnnncrixnnnnxribnnnnnnn9>:4bnnnnhqibnnnnnlqibnnnnb2<",
"<4bnnnnnjqibnnnnbiixnnnnlribnnnnnnn9,>3bnnnnhqsbnnnnnxribnnnnb2<",
"<4bnnnnnxqibnnnncirlnnnnxiibnnnnnnn9:>3bnnnnhqsbnnnnnxribnnnnb2<",
"<4bnnnnnlqinnnnnbirlnnnncricnnnnnnn9,>3bnnnbhqibbbbbbhqilxlxxl2<",
"<4bnnnnnxqibnnnnbiqxbbbnciixbcbccxl6>:2hhhfgiqqsssiiii7qriiir91,",
"<6bbbcxxhqijljhhsq9pssssiqqiiiiiier2:;1qqqqq96qqqqqqqq6qrriiii1,",
",2iiiiii97qqqqqq9779qqqqqq6qqiiiiii2>;1aisssiqqhhhhjjhqrlbbbbv2<",
",29riiiiq79iiiissqqphhhhhqqhxlxcbbb9,>3vbbnnlqibnnnnnxqibnnnnb2<",
"<3lllcbblqibnbnbbiqxnnnnbirlnnnnnnnw<>2bnnnnhqibnnnnnxribnnnnb3<",
"<4bnnnnnxqibnnnnbiqjnnnnbiqxnnnnnnn9>>2vnnnnhqibnnnnnxribnnnnb3<",
"<3bnnnnnlqibnnnnbiqjnnnnbiqxnnnnnnn9,,1lnnnnhqsbnnnnnxribnnnnb3<",
"<3bnnnnnxqibnnnnbiqhnnnnbiqlnnnnnnny1<2lnnnnhqibbbnnbxqixcxlll2<",
"<3bnnnnnlqibnnnnbsqhnbbbbiqjbbbbbcly<<2sjhhhsqqssssiirqqiiiirq1,",
"<3vnbbbbxqrlllxxhi9ihssss9qiiiiiiir6<<26qqqqq76qqqqqqqqqqeiiii1,",
",2ppiiiirq6irqqqqq69qqqqqq79qqqqreq6<<16isssiqqhhhhhjsqixxbbbb3<",
",19qqqqrq67riiiii96rsssfhi9sjjxllxbs2<2sbbbnhqibnnnnnxribnnnnb3<",
"<2hhjxxlhqixbbbbbsqsnnnnbpqhnnnnnnbs2<2snnnnxqibnnnnnxqibnnnnb4<",
"<3bnnnnnxiicnnnnnsqsnnnnbsqhnnnnnnbs1<3sbnnnlqibnnnnnlribnnnnb41",
"<3bnnnnnciixnnnnnsqsnnnnbsqfnnnnnnny1<3snnnnjqibnnnnnliibnnnnb4<",
"<3bnnnnnbirxnnnnnsqfbnnnnsqsnnnnnnny1<3sbnnnlqibnbbbbxribbbbbc3<",
"<3bnnnnncircnnnnngqsbbbbnsqsbbbbbcc91<2yjjjhsqqhgssssiqqipiiii2,",
"<3lxxcxxhq9hhhhhhiqqsssssrqqiiiiiii6<<26rqqq96qqqqqqq977qqqqqr2<",
",2wiiiirq67qrqqqrq6qqqqqqq6qqqrriii91<26iiiiiqqsssshhsqqhhxxxl31",
",1qeiiiiiqqiipissiqrhfhhhiqilxlxxxcs<,<sbnnnjqibnnnnnlqibnnnnn91",
"<3xcbbbbciqlnnbbnhqibnnnnhqsbnnnnnns<,<snnnnjqinnnnnnlqibnnnnn6<",
"<3bnnnnnbirlnnnnnhqibnnnnhqsbnnnnnns<><snnnnxribnnnnnxribnnnnn6<",
"<3bnnnnnbiqlnnnnnhqibnnnnhqsbnnnnnns1,<snnnnxribnnnnnlribnnnnn9<",
"<3bnnnnnbiexnnnnnjqinnnnnhqsbnnnnnnh1,<snnnnlqibnnnnnxribnnnnn9<",
"<3bnnnnnbiqxnnnbbhqibbbbbhqpbbbbbbbs<,<ycccxhqilllxxxfqqhhhhhh3<",
"<2jxxxxhhqqshhhfhiqqsssssiqqissiiii6<>,6iiiiqqqqrqqqqq7qqqqrqq2,",
",1qqqqqqq779qqqqqq77qqqqq96qqqqrrqr6<>:6eirir7qiiiiiiiqqiissss3,",
",1iiiiiii9qisssssi9qshhhhs9rhhjjjxxs<:,9ccbbhqibbnnbnxiibnnnnn9<",
"<3vnnnnnbiqlnnnnnlribnnnnxqibnnnnnnh1,<9nnnnlqibnnnnnlribnnnnn9<",
"<3bnnnnnbiqxnnnnnlribnnnnxqibnnnnnnh1,<9nnnnxqibnnnnnxribnnnnn9<",
"13bnnnnnbiqlnnnnnliicnnnnlribnnnnnnh1,<9nnnnleibnnnnnxribnnnnn9<",
"13bnnnnnbiqjnnnnncribnnnnxribnnnnnnh1<<9nnnnxqibnnnnnleibnnnnny<",
"<3bnnnnnbsqhnnnnnbiilnnnnliibnnnnnnh1<<9nnnnxqibnnnnnleibnnnnny<",
"<2bnnnnnbiqjnnnnnbirlnnnnxiibnnnnnnl1,<6nnnnxribnnnnnxiibnnnnny<",
"<2bnnnnnbiqhnnnnnbirlnnnnciicnnnnnnj1<<4bnnnxribnnbbbxqibbbbbby<",
"<2hhhhhhhqqahhhhhs99isssyy96yy595553<::<32222221,,,,:-&&&;;;--;:",
":::;;::::,,:::;;;;::;;;;;;;:;;;;;;;;;;:;;;--------------=-----;:",
";;----------------------------------;::;----------------------;;",
"-$oooooooooooooooooooooooooooooooooO=;-%oooooooooooooooooooooo#;",
"-$................. . . ... .......o&--$ .............   .....+;",
"=$.................................o*--$......................+-",
"=$.................................o&--$......................O-",
"=$.................................o*--$......................O-",
"=$.................................X%--$......................O-",
"=$.................................X&--$......................O=",
"-%.................................X%--$......................O=",
"=$X................................X*--$X.....................o*",
"=%.................XXXXXoooooooooOoO=--%X.....................o=",
"=%++@@@####$$$$$$$$$$%%%%*****=--==*;;-$oXooooooooooOOO++@@@@#$-",
"--=--=-------------==-====**===**&%$==$$$$*%***====--=--=--==--="
};
