/* XPM */
static char *_83cb3646fc741aacf843858830d4040vNosNC6dCXp22cpE[] = {
/* columns rows colors chars-per-pixel */
"64 64 174 2 ",
"   c None",
".  c #CF8C86",
"X  c #D08C86",
"o  c #D18F89",
"O  c #D4928C",
"+  c #D69791",
"@  c #D69892",
"#  c #D99B95",
"$  c #DA9E98",
"%  c #DDA49E",
"&  c #DFA7A1",
"*  c #DFA8A1",
"=  c #E0A7A2",
"-  c #E2ACA6",
";  c #E3AEA8",
":  c #E5B3AD",
">  c #E8B5AF",
",  c #E7B6B1",
"<  c #E8B7B1",
"1  c #E7B9B3",
"2  c #E9B9B4",
"3  c #EABEB9",
"4  c #EDC2BD",
"5  c #EEC6C2",
"6  c #EFC9C5",
"7  c #EFCDC9",
"8  c #F0C6C2",
"9  c #F3CBC6",
"0  c #F3CDC8",
"q  c #F3CCC9",
"w  c #F3CDC9",
"e  c #F3CCC8",
"r  c #F3CEC9",
"t  c #F1CCCB",
"y  c #F2CCCA",
"u  c #F3CDCA",
"i  c #F0CECA",
"p  c #F1CECA",
"a  c #F1CFCB",
"s  c #F3CECA",
"d  c #F3CFCA",
"f  c #F2CECB",
"g  c #F3CECB",
"h  c #F3CFCB",
"j  c #F4CCC8",
"k  c #F4CDC8",
"l  c #F4CCC9",
"z  c #F4CDC9",
"x  c #F4CEC8",
"c  c #F5CEC8",
"v  c #F4CEC9",
"b  c #F5CEC9",
"n  c #F4CDCA",
"m  c #F4CECA",
"M  c #F5CECA",
"N  c #F4CFCA",
"B  c #F5CFCA",
"V  c #F4CECB",
"C  c #F4CFCB",
"Z  c #F5CFCB",
"A  c #F2CFCC",
"S  c #F4CFCC",
"D  c #F5CFCC",
"F  c #F4CFCD",
"G  c #F3CEC9",
"H  c #F1D0CA",
"J  c #F5D0CA",
"K  c #F5D0CB",
"L  c #F1D0CC",
"P  c #F2D0CC",
"I  c #F2D0CD",
"U  c #F3D0CD",
"Y  c #F2D1CD",
"T  c #F2D2CD",
"R  c #F3D2CD",
"E  c #F2D1CE",
"W  c #F3D1CE",
"Q  c #F4D0CC",
"!  c #F5D0CC",
"~  c #F4D1CC",
"^  c #F5D1CC",
"/  c #F4D0CD",
"(  c #F5D0CD",
")  c #F4D1CD",
"_  c #F5D1CD",
"`  c #F6D1CD",
"'  c #F4D2CD",
"]  c #F5D2CD",
"[  c #F4D0CE",
"{  c #F4D1CE",
"}  c #F5D1CE",
"|  c #F4D2CE",
" . c #F5D2CE",
".. c #F4D2CF",
"X. c #F5D2CF",
"o. c #F4D3CF",
"O. c #F5D3CF",
"+. c #F6D2CE",
"@. c #F6D3CF",
"#. c #F5D4CF",
"$. c #F4D1CD",
"%. c #F4D2D0",
"&. c #F5D3D0",
"*. c #F5D4D0",
"=. c #F5D4D1",
"-. c #F5D5D1",
";. c #F6D4D0",
":. c #F5D4D2",
">. c #F5D5D2",
",. c #F5D5D3",
"<. c #F6D5D2",
"1. c #F5D6D2",
"2. c #F5D6D3",
"3. c #F5D7D3",
"4. c #F6D6D2",
"5. c #F6D7D2",
"6. c #F6D6D3",
"7. c #F7D6D3",
"8. c #F6D7D3",
"9. c #F5D7D4",
"0. c #F6D7D4",
"q. c #F7D7D4",
"w. c #F6D7D5",
"e. c #F5D5D2",
"r. c #F6D8D5",
"t. c #F5D9D6",
"y. c #F5D9D7",
"u. c #F6D8D6",
"i. c #F6D9D6",
"p. c #F7D9D6",
"a. c #F6D8D6",
"s. c #F5DAD8",
"d. c #F7DAD8",
"f. c #F7DBD8",
"g. c #F7DBD9",
"h. c #F7DCD8",
"j. c #F7DCD9",
"k. c #F7DCDA",
"l. c #F7DDDA",
"z. c #F7DDDB",
"x. c #F7DEDB",
"c. c #F7DEDC",
"v. c #F7DEDD",
"b. c #F7DFDE",
"n. c #F6DCD9",
"m. c #F8DCD8",
"M. c #F8DEDB",
"N. c #F8DEDC",
"B. c #F8DFDC",
"V. c #F9DFDC",
"C. c #F8DEDD",
"Z. c #F8DFDD",
"A. c #F9DFDD",
"S. c #F8DFDE",
"D. c #F8DEDC",
"F. c #F7E0DC",
"G. c #F7E0DD",
"H. c #F7E0DE",
"J. c #F7E1DD",
"K. c #F8E0DD",
"L. c #F8E0DE",
"P. c #F9E0DE",
"I. c #F9E0DF",
"U. c #F9E1DF",
"Y. c #F8E2DF",
"T. c #F8E1DE",
"R. c #F8E2E0",
"E. c #F9E2E0",
"W. c #F8E3E0",
"Q. c #F8E2E1",
"!. c #F8E3E1",
"~. c #F9E3E1",
"^. c #FAE2E0",
"/. c #F9E3E1",
/* pixels */
"2 2 3 2 2 3 2 2 2 2 2 2 3 3 2 2 2 2 2 2 < 2 < 2 2 < 2 2 2 2 2 2 2 , < , : > 2 4 2 2                                       2 2 2 ",
"2 4 A p p I p I 9 4 8 I I I I H 5 4 5 9 6 9 6 8 8 4 5 9 9 9 9 6 9 9 9 3 > > 6 z.3 2                                       2 2 2 ",
"2 9 ~.~.~.~.~.~.r.N ;.~.~.~.~.Z.} N N r.r.r.;.} } p } r.r.r.r.;.} ;.r.4 > 2 I b.3 2                                       2 2 2 ",
"2 6 ~.~.~.~.~.~.r.N ;.~.~.~.~.Z.} p N 9.r.r.;.} } p p r.r.r.r.;.} ;.9.4 > 2 p Z.4 2                                       2 2 2 ",
"2 6 ~.~.~.~.~.~.r.N ;.~.~.~.~.Z.} N N 9.r.r.;.} } N N r.r.r.r.;.} ;.r.4 < < p P.4 2                                       2 2 2 ",
"3 6 ~.~.~.~.~.~.r.N ;.~.~.~.~.Z.} p N ;.r.r.;.} } N N r.r.r.r.;.} &.r.5 < , p Z.4 2                                       2 2 2 ",
"3 6 H.P.b.P.Z.P.;.p } Z.b.Z.Z.d.p 9 N } } } } D N 9 p I } } } N p p } 4 > , 8 } 3 2                                       2 2 2 ",
"3 5 I } } } } } N 9 N } } } } N 9 9 9 9 N 9 9 9 9 9 9 p N k k 9 j 9 p 4 > , 4 K 3 2                                       2 2 2 ",
"3 8 } K } } } } N 9 N } } } } } N 9 k p p N N N 9 9 9 N p N N p p p N 4 > < 8 r.3 2                                       2 2 2 ",
"3 9 z.z.b.M.Z.Z.r.p } P.P.P.~.z.} N N ;.r.r.;.} } p N r.r.r.r.;.} &.r.5 < < 9 ~.4 2                                       2 2 2 ",
"3 6 ~.~.~.~.~.~.d.N &.~.~.~.~.Z.} N N ;.r.r.;.} } N p 9.r.r.r.;.} &.r.5 , > 6 ~.4 2                                       2 2 2 ",
"3 6 ~.~.~.~.~.~.d.N } ~.~.~.~.Z.} N N ;.r.r.;.} } N p 9.r.r.r.;.} &.r.5 2 < 6 ~.4 2                                       2 2 2 ",
"3 6 P.~.~.~.~.~.M.N ;.~.~.~.~.Z.} N N ;.r.r.;.} } p N ;.r.r.r.9.} &.r.5 < < 5 ~.4 2                                       2 2 2 ",
"3 6 ~.~.~.~.~.~.z.D } ~.~.~.~.Z.} N N ;.r.r.;.} } N N ;.r.r.r.9.} } 9.5 < < 5 z.4 2                                       2 2 2 ",
"3 6 ~.~.~.~.~.~.z.N } ~.~.~.~.Z.I p N } ;.;.#.} } N N } } &.} } D } } 4 < > 4 p 3 2                                       2 2 2 ",
"3 9 H.P.H.Z.Z.Z.r.N } d.z.d.r.;.p 9 9 N N p N p N 9 9 N N 9 p 9 k e 9 4 > > 3 } 3 2                                       2 2 2 ",
"2 4 } } } } } } p 9 9 p N p p p 9 9 9 9 9 N 9 9 9 9 9 e p p p p N N N 4 < > 4 b.4 2                                       2 2 2 ",
"2 4 p K } } } } p 9 N } } } ;.#.p N k p } } } K } p N &.;.;.;.;.I } 9.6 2 < 5 ~.4 2                                       1 2 2 ",
"2 5 z.z.Z.P.P.P.z.p } P.~.P.~.Z.} N N ;.r.r.;.} ;.p N ;.r.r.r.;.} &.9.9 2 > 5 ~.4 2                                       1 2 2 ",
"3 6 ~.~.~.~.~.~.M.N } P.~.~.~.Z.I N N ;.r.r.;.} ;.N p ;.r.r.r.;.} &.9.8 , < 4 ~.4 2                                       1 2 2 ",
"3 6 ~.~.~.~.~.~.M.p } P.~.~.~.Z.I } N ;.r.r.;.} &.N p ;.r.r.r.;.} &.9.5 2 2 4 ~.4 2                                       2 2 2 ",
"2 5 ~.~.~.~.~.~.M.p } P.~.~.~.Z.I } N &.r.r.;.} &.p p ;.r.r.r.9.} } 9.9 3 2 4 z.4 2                                       2 2 2 ",
"3 5 ~.~.~.~.~.~.M.N } H.~.~.~.Z.} N p } ;.;.;.} } N 9 } &.;.&.} } } I 9 3 2 4 N 3 2                                       2 2 2 ",
"2 5 H.~.P.~.P.H.M.N K z.z.M.M.r.p 9 9 N N N N N N 9 9 p N N k N N N N 5 2 2 4 } 3 <                                       2 2 2 ",
"2 4 #.;.} } } } H k 9 } } K N N 9 9 9 9 9 9 9 9 9 9 9 9 9 e N p N e N 8 3 2 4 ~.4 ,                                       2 2 2 ",
"2 3 p N N N K } N 9 9 K } } } } p 9 9 p } } D N } p N } &.&.;.;.} } ;.p 3 2 4 ~.5 2                                       2 2 2 ",
"2 4 r.r.d.M.M.M.d.K } M.P.~.P.z.A p p } r.r.;.} ;.H p } r.r.r.;.} &.9.p 3 2 4 ~.5 2                                       2 2 2 ",
"3 6 ~.~.~.~.~.~.Z.} } Z.~.~.~.Z.I I p } r.r.;.} ;.} p } r.r.r.9.} } 9.p 3 2 4 ~.5 2                                       2 2 2 ",
"3 5 ~.~.~.~.~.~.P.} } Z.~.~.~.Z.I D p } r.r.;.} ;.} p } r.r.r.9.&.&.r.p 3 3 4 ~.5 2                                       2 2 2 ",
"3 5 ~.~.~.~.~.~.P.} K Z.~.~.~.Z.I D N } r.r.;.} ;.} N } r.r.r.;.} &.r.p 3 2 5 P.8 2                                       2 2 2 ",
"3 5 ~.~.~.~.~.~.b.} } Z.~.~.~.Z.I K p A ;.;.&.} &.} 9 N ;.&.&.} } } } 8 3 2 4 } 4 2                                       2 2 2 ",
"3 5 H.z.Z.Z.Z.M.r.p p r.z.r.r.;.N N k e p N p p p N 9 9 N N N N N k 9 5 2 1 4 } 4 <                                       1 2 2 ",
"2 3 } } } } } } p 9 9 N N p N N 9 9 9 9 9 p 9 9 9 9 9 k 9 p N p N N p 9 3 3 4 M.5 2                                       2 2 2 ",
"2 4 D D } } } } } N N } } #.&.} 9 N 9 p } } } } K N 9 N ;.;.;.;.} } ;.p 2 < 3 ~.6 2                                       2 2 2 ",
"3 5 Z.Z.P.P.P.~.P.} N M.~.~.P.Z.p } N } r.r.;.} ;.} p } r.r.r.9.} &.r.p 2 1 2 ~.6 2                                       2 2 2 ",
"3 5 ~.~.~.~.~.~.P.} K M.~.~.~.Z.p } p N r.r.;.} ;.;.p } r.r.r.9.} &.9.p 2 < 2 ~.6 2                                       2 2 2 ",
"2 5 ~.~.~.~.~.~.P.} N M.~.~.~.Z.p } N D r.r.;.} ;.} p } r.r.r.9.} &.9.p 2 , 2 ~.6 <                                       2 2 2 ",
"3 5 ~.~.~.~.~.~.P.} D M.~.~.~.Z.p } N N r.r.;.} &.&.p } r.r.r.9.} &.9.I 2 < 2 ~.6 2                                       2 2 2 ",
"3 5 ~.~.~.~.~.~.P.} K M.~.~.~.Z.p } p N ;.;.;.} } } p N ;.;.9.;.} } ;.p 2 < 2 r.5 2                                       2 2 2 ",
"3 4 g.M.M.M.d.d.r.p N ;.r.9.r.;.p p 9 9 N N N N p N 9 9 N N N N p k N 8 2 , < N 4 <                                       2 2 2 ",
"2 3 N p K K K K N 9 9 p N N p p 9 9 9 9 9 9 9 9 N 9 9 9 k 9 9 N 9 9 N 8 2 < , ;.5 2                                       2 2 2 ",
"2 3 } } } } } } } N N } ;.;.;.;.p N 9 p A } } p } N 9 p &.;.&.} p } &.p 2 < 2 ~.7 2                                       2 2 2 ",
"3 5 H.~.~.~.~.~.~.} p z.~.~.~.Z.p } N p ;.r.;.} &.;.p p r.r.r.9.} &.9.I 3 2 3 ~.7 2                                       2 2 2 ",
"3 5 ~.~.~.~.~.~.~.} p M.~.~.~.Z.p } N N 9.r.;.} &.;.N N r.r.r.9.} &.9.} 3 2 3 ~.p 2                                       , 2 2 ",
"3 5 ~.~.~.~.~.~.~.} N z.~.~.~.Z.p I p N ;.r.;.} } ;.N N 9.r.r.9.} } 9.} 3 < 3 ~.p <                                       2 2 2 ",
"3 5 ~.~.~.~.~.~.~.;.N d.~.~.~.Z.p } N p ;.r.;.} &.;.N p 9.r.r.9.&.&.9.I 3 2 3 ~.p 2                                       2 2 2 ",
"3 5 ~.~.~.~.~.~.~.;.N d.~.~.~.Z.p } p p ;.r.;.} } ;.p N ;.r.9.9.} &.9.} 3 2 3 ~.A 2                                       2 2 2 ",
"3 5 ~.~.~.~.~.~.~.} N d.~.~.~.Z.p } N N ;.r.;.} &.;.p N 9.r.r.9.&.;.9.} 3 2 2 ~.I ,                                       2 2 2 ",
"3 4 ~.~.~.~.~.~.~.;.N d.~.~.~.Z.p I N N ;.r.;.} &.;.N p ;.r.r.;.&.;.r.} 3 2 2 P.p 2                                       2 2 2 ",
"2 4 r.d.d.d.d.d.d.p 9 ;.d.d.d.9.6 8 8 8 8 5 5 5 5 4 5 5 4 4 3 3 3 2 2 2 , : > ; : >                                       2 2 2 ",
"> , , , , , , , , 2 2 , , , > > : : > > > : : : : : : > : ; : : : : ; : > , , ; : >                                       2 2 2 ",
": : ; ; ; ; ; ; ; ; ; ; ; ; ; ; ; ; ; ; ; ; ; ; ; ; ; ; ; ; ; ; ; ; ; ; > , , ; : :                                       2 2 2 ",
"; % O O O O O O O O O O O O O O O O O O O O O O O O O O O O O O O O O + - : ; O $ :                                       2 2 2 ",
"; % X X X X X X X X X X X X X X X X X . X . X . X X X . X X X X X X X O * ; ; X @ ;                                       < 2 2 ",
"- % X X X X X X X X X X X X X X X X X X X X X X X X X X X X X X X X X O = ; ; X @ ;                                       , 2 2 ",
"- % X X X X X X X X X X X X X X X X X X X X X X X X X X X X X X X X X O * ; ; X + ;                                       1 2 2 ",
"- % X X X X X X X X X X X X X X X X X X X X X X X X X X X X X X X X X O = ; ; X + ;                                       2 2 2 ",
"- % X X X X X X X X X X X X X X X X X X X X X X X X X X X X X X X X X o & ; ; X + ;                                       2 2 2 ",
"- % X X X X X X X X X X X X X X X X X X X X X X X X X X X X X X X X X o * ; * X + -                                       2 2 2 ",
"; & X X X X X X X X X X X X X X X X X X X X X X X X X X X X X X X X X o & ; - X + -                                       < 2 2 ",
"- % o X X X X X X X X X X X X X X X X X X X X X X X X X X X X X X X X o = ; ; X O =                                       2 2 2 ",
"- & X X X X X X X X X X X X X X X X X o o o o o O O O O O O O O O + O + - ; ; X O -                                       2 2 2 ",
"- & @ @ # # # $ $ $ $ % % % % % % % % % % & & & & = = = = = - ; ; - - = : : ; $ % ;                                       1 2 2 ",
"; ; - ; ; - ; ; ; ; ; ; ; ; ; ; ; ; ; - - ; - - - - = = - - - = = * & % - - % ; ; -                                       2 2 2 "
};
